<svg xmlns="http://www.w3.org/2000/svg" xmlns:xlink="http://www.w3.org/1999/xlink" width="500" zoomAndPan="magnify" viewBox="0 0 375 374.999991" height="500"  preserveAspectRatio="xMidYMid meet" version="1.0"> <defs><g/><clipPath id="d42f5bd4cd"><path d="M 266 71.5625 L 268 71.5625 L 268 107 L 266 107 Z M 266 71.5625 " clip-rule="nonzero"/></clipPath><clipPath id="d4f26238af"><path d="M 333 172 L 368.613281 172 L 368.613281 174 L 333 174 Z M 333 172 " clip-rule="nonzero"/></clipPath><clipPath id="ed293d81e1"><path d="M 195.363281 219 L 221 219 L 221 245 L 195.363281 245 Z M 195.363281 219 " clip-rule="nonzero"/></clipPath><clipPath id="9621f476ac"><path d="M 195.363281 101 L 221 101 L 221 127 L 195.363281 127 Z M 195.363281 101 " clip-rule="nonzero"/></clipPath></defs><rect x="-37.5" width="450" fill="#ffffff" y="-37.499999" height="449.999989" fill-opacity="1"/><rect x="-37.5" width="450" fill="#ffffff" y="-37.499999" height="449.999989" fill-opacity="1"/><rect x="-37.5" width="450" fill="#faf8f7" y="-37.499999" height="449.999989" fill-opacity="1"/><path fill="#e68585" d="M 267.285156 239.53125 C 267.105469 239.53125 266.949219 239.597656 266.820312 239.726562 C 266.691406 239.851562 266.628906 240.007812 266.628906 240.1875 L 266.628906 273.316406 C 266.628906 273.496094 266.695312 273.652344 266.824219 273.777344 C 266.949219 273.90625 267.105469 273.972656 267.285156 273.972656 C 267.464844 273.972656 267.621094 273.90625 267.746094 273.777344 C 267.875 273.652344 267.941406 273.496094 267.941406 273.316406 L 267.941406 240.1875 C 267.941406 240.007812 267.875 239.851562 267.75 239.726562 C 267.621094 239.597656 267.464844 239.53125 267.285156 239.53125 Z M 267.285156 239.53125 " fill-opacity="1" fill-rule="nonzero"/><g clip-path="url(#d42f5bd4cd)"><path fill="#e68585" d="M 267.242188 106.253906 C 267.421875 106.253906 267.574219 106.1875 267.703125 106.0625 C 267.832031 105.933594 267.894531 105.78125 267.894531 105.601562 L 267.894531 72.402344 C 267.910156 72.210938 267.855469 72.046875 267.722656 71.90625 C 267.59375 71.765625 267.433594 71.695312 267.242188 71.695312 C 267.050781 71.695312 266.890625 71.765625 266.761719 71.90625 C 266.632812 72.046875 266.574219 72.210938 266.589844 72.402344 L 266.589844 105.601562 C 266.589844 105.78125 266.652344 105.933594 266.78125 106.0625 C 266.90625 106.1875 267.058594 106.253906 267.242188 106.253906 Z M 267.242188 106.253906 " fill-opacity="1" fill-rule="nonzero"/></g><g clip-path="url(#d4f26238af)"><path fill="#e68585" d="M 367.925781 172.167969 L 334.699219 172.167969 C 334.507812 172.152344 334.34375 172.210938 334.203125 172.339844 C 334.0625 172.46875 333.992188 172.628906 333.992188 172.820312 C 333.992188 173.011719 334.0625 173.171875 334.203125 173.300781 C 334.34375 173.429688 334.507812 173.488281 334.699219 173.472656 L 367.929688 173.472656 C 368.113281 173.472656 368.265625 173.40625 368.394531 173.28125 C 368.523438 173.152344 368.585938 172.996094 368.585938 172.816406 C 368.585938 172.636719 368.523438 172.480469 368.394531 172.355469 C 368.265625 172.226562 368.113281 172.164062 367.929688 172.164062 Z M 367.925781 172.167969 " fill-opacity="1" fill-rule="nonzero"/></g><g clip-path="url(#ed293d81e1)"><path fill="#e68585" d="M 220.324219 220.375 C 220.320312 220.085938 220.183594 219.882812 219.917969 219.773438 C 219.648438 219.664062 219.410156 219.710938 219.203125 219.914062 L 195.640625 243.457031 C 195.4375 243.660156 195.390625 243.898438 195.5 244.167969 C 195.613281 244.433594 195.8125 244.570312 196.101562 244.570312 C 196.28125 244.570312 196.4375 244.507812 196.5625 244.382812 L 220.132812 220.832031 C 220.261719 220.707031 220.324219 220.554688 220.324219 220.375 Z M 220.324219 220.375 " fill-opacity="1" fill-rule="nonzero"/></g><path fill="#e68585" d="M 314.363281 125.820312 C 314.492188 125.949219 314.648438 126.011719 314.828125 126.011719 C 315.007812 126.011719 315.160156 125.949219 315.289062 125.820312 L 338.886719 102.261719 C 339.019531 102.136719 339.089844 101.980469 339.089844 101.796875 C 339.09375 101.613281 339.03125 101.453125 338.898438 101.324219 C 338.769531 101.195312 338.609375 101.128906 338.425781 101.132812 C 338.242188 101.136719 338.085938 101.203125 337.957031 101.339844 L 314.363281 124.894531 C 314.238281 125.023438 314.171875 125.179688 314.171875 125.359375 C 314.171875 125.539062 314.238281 125.695312 314.363281 125.820312 Z M 314.363281 125.820312 " fill-opacity="1" fill-rule="nonzero"/><g clip-path="url(#9621f476ac)"><path fill="#e68585" d="M 219.21875 125.886719 C 219.34375 126.03125 219.5 126.105469 219.691406 126.109375 C 219.878906 126.117188 220.042969 126.054688 220.175781 125.917969 C 220.3125 125.785156 220.375 125.621094 220.367188 125.433594 C 220.359375 125.242188 220.285156 125.085938 220.140625 124.960938 L 196.519531 101.382812 C 196.390625 101.261719 196.238281 101.203125 196.058594 101.203125 C 195.882812 101.207031 195.730469 101.269531 195.605469 101.394531 C 195.480469 101.519531 195.417969 101.671875 195.414062 101.847656 C 195.410156 102.027344 195.46875 102.179688 195.59375 102.308594 Z M 219.21875 125.886719 " fill-opacity="1" fill-rule="nonzero"/></g><path fill="#e68585" d="M 315.429688 219.960938 C 315.222656 219.757812 314.984375 219.710938 314.714844 219.824219 C 314.445312 219.933594 314.3125 220.136719 314.3125 220.425781 C 314.3125 220.605469 314.375 220.761719 314.503906 220.886719 L 337.984375 244.320312 C 338.109375 244.464844 338.269531 244.539062 338.457031 244.546875 C 338.648438 244.550781 338.8125 244.488281 338.945312 244.351562 C 339.082031 244.21875 339.144531 244.054688 339.136719 243.867188 C 339.128906 243.675781 339.054688 243.519531 338.910156 243.394531 Z M 315.429688 219.960938 " fill-opacity="1" fill-rule="nonzero"/><path fill="#e68585" d="M 329.171875 147.542969 C 329.128906 147.644531 329.113281 147.75 329.125 147.855469 C 329.132812 147.964844 329.167969 148.066406 329.230469 148.160156 C 329.289062 148.25 329.367188 148.324219 329.464844 148.375 C 329.5625 148.425781 329.664062 148.453125 329.773438 148.453125 C 329.859375 148.457031 329.941406 148.4375 330.019531 148.40625 L 360.917969 136.023438 C 361.074219 135.949219 361.179688 135.832031 361.242188 135.671875 C 361.304688 135.511719 361.304688 135.351562 361.238281 135.191406 C 361.175781 135.03125 361.066406 134.917969 360.910156 134.84375 C 360.757812 134.769531 360.597656 134.757812 360.433594 134.8125 L 329.53125 147.199219 C 329.363281 147.265625 329.246094 147.378906 329.171875 147.542969 Z M 329.171875 147.542969 " fill-opacity="1" fill-rule="nonzero"/><path fill="#e68585" d="M 230.351562 79.394531 C 230.285156 79.226562 230.167969 79.109375 230.003906 79.039062 C 229.835938 78.964844 229.667969 78.964844 229.5 79.03125 C 229.332031 79.097656 229.210938 79.214844 229.140625 79.378906 C 229.070312 79.546875 229.066406 79.714844 229.136719 79.878906 L 241.558594 110.738281 C 241.671875 111.007812 241.875 111.144531 242.167969 111.144531 C 242.25 111.144531 242.332031 111.128906 242.414062 111.097656 C 242.582031 111.03125 242.699219 110.914062 242.769531 110.746094 C 242.839844 110.582031 242.839844 110.414062 242.769531 110.246094 Z M 230.351562 79.394531 " fill-opacity="1" fill-rule="nonzero"/><path fill="#e68585" d="M 293.015625 235.082031 C 292.941406 234.921875 292.824219 234.8125 292.660156 234.75 C 292.5 234.6875 292.339844 234.6875 292.175781 234.753906 C 292.015625 234.816406 291.898438 234.929688 291.824219 235.085938 C 291.753906 235.246094 291.746094 235.40625 291.800781 235.570312 L 304.179688 266.3125 C 304.253906 266.464844 304.371094 266.574219 304.53125 266.636719 C 304.691406 266.695312 304.851562 266.695312 305.011719 266.632812 C 305.171875 266.566406 305.285156 266.460938 305.359375 266.304688 C 305.433594 266.148438 305.445312 265.988281 305.394531 265.828125 Z M 293.015625 235.082031 " fill-opacity="1" fill-rule="nonzero"/><path fill="#e68585" d="M 360.101562 211.691406 L 329.5625 198.683594 C 329.398438 198.613281 329.230469 198.613281 329.0625 198.679688 C 328.894531 198.746094 328.777344 198.863281 328.707031 199.03125 C 328.632812 199.195312 328.632812 199.363281 328.707031 199.527344 C 328.773438 199.695312 328.886719 199.816406 329.054688 199.886719 L 359.589844 212.894531 C 359.671875 212.929688 359.761719 212.945312 359.851562 212.949219 C 360.140625 212.949219 360.339844 212.8125 360.453125 212.542969 C 360.523438 212.378906 360.523438 212.214844 360.453125 212.046875 C 360.382812 211.878906 360.265625 211.761719 360.101562 211.691406 Z M 360.101562 211.691406 " fill-opacity="1" fill-rule="nonzero"/><path fill="#e68585" d="M 293.488281 111.546875 C 293.574219 111.582031 293.660156 111.597656 293.75 111.601562 C 294.039062 111.597656 294.242188 111.464844 294.351562 111.195312 L 307.390625 80.722656 C 307.460938 80.554688 307.460938 80.390625 307.394531 80.222656 C 307.328125 80.054688 307.210938 79.933594 307.042969 79.863281 C 306.878906 79.792969 306.710938 79.792969 306.542969 79.863281 C 306.375 79.933594 306.257812 80.050781 306.1875 80.214844 L 293.144531 110.6875 C 293.074219 110.851562 293.074219 111.019531 293.140625 111.1875 C 293.207031 111.355469 293.324219 111.476562 293.488281 111.546875 Z M 293.488281 111.546875 " fill-opacity="1" fill-rule="nonzero"/><path fill="#e68585" d="M 241.046875 234.128906 C 240.882812 234.058594 240.714844 234.058594 240.546875 234.125 C 240.378906 234.191406 240.257812 234.304688 240.1875 234.472656 L 227.136719 264.980469 C 227.066406 265.148438 227.066406 265.316406 227.136719 265.484375 C 227.203125 265.652344 227.320312 265.769531 227.488281 265.839844 C 227.570312 265.875 227.65625 265.890625 227.742188 265.890625 C 228.035156 265.890625 228.234375 265.753906 228.347656 265.488281 L 241.394531 234.972656 C 241.460938 234.808594 241.457031 234.644531 241.390625 234.480469 C 241.324219 234.316406 241.210938 234.199219 241.046875 234.128906 Z M 241.046875 234.128906 " fill-opacity="1" fill-rule="nonzero"/><path fill="#e68585" d="M 254.265625 238.203125 C 254.089844 238.167969 253.925781 238.199219 253.777344 238.300781 C 253.625 238.394531 253.53125 238.53125 253.496094 238.703125 L 250.210938 255.222656 C 250.171875 255.398438 250.207031 255.5625 250.308594 255.714844 C 250.4375 255.90625 250.621094 256 250.851562 256 C 251.007812 256 251.144531 255.953125 251.265625 255.851562 C 251.386719 255.753906 251.464844 255.628906 251.496094 255.476562 L 254.777344 238.960938 C 254.816406 238.78125 254.78125 238.621094 254.679688 238.46875 C 254.578125 238.324219 254.4375 238.238281 254.265625 238.203125 Z M 254.265625 238.203125 " fill-opacity="1" fill-rule="nonzero"/><path fill="#e68585" d="M 283.851562 89.445312 C 283.675781 89.410156 283.511719 89.441406 283.363281 89.542969 C 283.210938 89.640625 283.121094 89.78125 283.082031 89.957031 L 279.742188 106.746094 C 279.707031 106.925781 279.738281 107.085938 279.839844 107.238281 C 279.9375 107.386719 280.070312 107.476562 280.246094 107.515625 C 280.289062 107.519531 280.332031 107.519531 280.375 107.515625 C 280.53125 107.515625 280.667969 107.464844 280.789062 107.367188 C 280.910156 107.269531 280.984375 107.140625 281.015625 106.988281 L 284.355469 90.199219 C 284.386719 90.027344 284.351562 89.867188 284.257812 89.71875 C 284.160156 89.574219 284.023438 89.480469 283.851562 89.445312 Z M 283.851562 89.445312 " fill-opacity="1" fill-rule="nonzero"/><path fill="#e68585" d="M 333.089844 185.414062 C 332.941406 185.511719 332.847656 185.644531 332.808594 185.820312 C 332.773438 185.996094 332.804688 186.15625 332.90625 186.308594 C 333 186.457031 333.136719 186.546875 333.308594 186.585938 L 349.859375 189.863281 C 349.90625 189.867188 349.949219 189.867188 349.992188 189.863281 C 350.148438 189.863281 350.285156 189.8125 350.40625 189.710938 C 350.527344 189.613281 350.601562 189.488281 350.628906 189.332031 C 350.667969 189.15625 350.636719 188.992188 350.535156 188.84375 C 350.4375 188.695312 350.300781 188.605469 350.128906 188.566406 L 333.582031 185.289062 C 333.398438 185.261719 333.234375 185.300781 333.089844 185.414062 Z M 333.089844 185.414062 " fill-opacity="1" fill-rule="nonzero"/><path fill="#e68585" d="M 338.066406 125.597656 C 337.964844 125.449219 337.828125 125.355469 337.652344 125.324219 C 337.472656 125.289062 337.308594 125.320312 337.160156 125.421875 L 322.859375 134.960938 C 322.710938 135.0625 322.617188 135.203125 322.582031 135.378906 C 322.546875 135.554688 322.582031 135.71875 322.679688 135.871094 C 322.78125 136.019531 322.917969 136.113281 323.097656 136.148438 C 323.273438 136.183594 323.4375 136.148438 323.589844 136.046875 L 337.890625 126.503906 C 338.039062 126.402344 338.132812 126.265625 338.167969 126.089844 C 338.203125 125.910156 338.167969 125.75 338.066406 125.597656 Z M 338.066406 125.597656 " fill-opacity="1" fill-rule="nonzero"/><path fill="#e68585" d="M 229.289062 117.375 C 229.453125 117.613281 229.675781 117.707031 229.960938 117.648438 C 230.246094 117.59375 230.417969 117.421875 230.476562 117.140625 C 230.511719 116.960938 230.480469 116.796875 230.378906 116.644531 L 220.726562 102.242188 C 220.625 102.101562 220.484375 102.015625 220.3125 101.988281 C 220.140625 101.957031 219.980469 101.988281 219.835938 102.085938 C 219.6875 102.183594 219.597656 102.320312 219.558594 102.488281 C 219.519531 102.660156 219.546875 102.820312 219.636719 102.96875 Z M 229.289062 117.375 " fill-opacity="1" fill-rule="nonzero"/><path fill="#e68585" d="M 305.324219 228.472656 C 305.222656 228.320312 305.085938 228.226562 304.910156 228.191406 C 304.730469 228.15625 304.566406 228.1875 304.417969 228.289062 C 304.269531 228.386719 304.175781 228.519531 304.136719 228.691406 C 304.101562 228.871094 304.136719 229.03125 304.234375 229.183594 L 313.667969 243.257812 C 313.828125 243.488281 314.046875 243.578125 314.320312 243.53125 C 314.597656 243.480469 314.773438 243.324219 314.84375 243.050781 C 314.878906 242.875 314.84375 242.714844 314.746094 242.5625 Z M 305.324219 228.472656 " fill-opacity="1" fill-rule="nonzero"/><path fill="#e68585" d="M 350.90625 157.175781 C 350.871094 157 350.777344 156.863281 350.628906 156.761719 C 350.480469 156.660156 350.316406 156.625 350.140625 156.65625 L 333.382812 159.796875 C 333.21875 159.828125 333.085938 159.910156 332.984375 160.046875 C 332.882812 160.179688 332.839844 160.328125 332.855469 160.496094 C 332.871094 160.664062 332.9375 160.804688 333.0625 160.917969 C 333.1875 161.03125 333.332031 161.089844 333.5 161.09375 L 333.621094 161.09375 L 350.382812 157.953125 C 350.5625 157.917969 350.703125 157.824219 350.804688 157.671875 C 350.90625 157.523438 350.941406 157.355469 350.90625 157.175781 Z M 350.90625 157.175781 " fill-opacity="1" fill-rule="nonzero"/><path fill="#e68585" d="M 252.328125 89.976562 C 252.285156 89.808594 252.191406 89.679688 252.046875 89.585938 C 251.902344 89.492188 251.742188 89.460938 251.574219 89.492188 C 251.402344 89.523438 251.265625 89.609375 251.164062 89.746094 C 251.058594 89.886719 251.019531 90.042969 251.042969 90.214844 L 254.1875 106.9375 C 254.21875 107.089844 254.292969 107.21875 254.414062 107.320312 C 254.535156 107.417969 254.671875 107.46875 254.832031 107.472656 C 254.871094 107.476562 254.910156 107.476562 254.953125 107.472656 C 255.128906 107.4375 255.269531 107.347656 255.371094 107.199219 C 255.476562 107.050781 255.507812 106.886719 255.472656 106.710938 Z M 252.328125 89.976562 " fill-opacity="1" fill-rule="nonzero"/><path fill="#e68585" d="M 280.347656 238.824219 C 280.320312 238.640625 280.230469 238.492188 280.078125 238.382812 C 279.925781 238.273438 279.757812 238.238281 279.574219 238.273438 C 279.390625 238.308594 279.25 238.402344 279.144531 238.558594 C 279.042969 238.71875 279.015625 238.886719 279.058594 239.070312 L 282.195312 255.746094 C 282.226562 255.902344 282.300781 256.027344 282.421875 256.128906 C 282.542969 256.226562 282.683594 256.277344 282.839844 256.28125 C 282.882812 256.285156 282.921875 256.285156 282.960938 256.28125 C 283.140625 256.25 283.28125 256.15625 283.382812 256.007812 C 283.484375 255.859375 283.519531 255.699219 283.484375 255.519531 Z M 280.347656 238.824219 " fill-opacity="1" fill-rule="nonzero"/><path fill="#e68585" d="M 322.417969 210.488281 C 322.316406 210.636719 322.28125 210.800781 322.316406 210.976562 C 322.351562 211.148438 322.445312 211.285156 322.59375 211.382812 L 336.519531 220.886719 C 336.667969 220.988281 336.832031 221.023438 337.011719 220.988281 C 337.1875 220.953125 337.328125 220.863281 337.425781 220.714844 C 337.53125 220.566406 337.566406 220.402344 337.53125 220.226562 C 337.496094 220.050781 337.40625 219.917969 337.257812 219.820312 L 323.34375 210.328125 C 323.195312 210.21875 323.03125 210.179688 322.847656 210.210938 C 322.664062 210.242188 322.523438 210.335938 322.417969 210.488281 Z M 322.417969 210.488281 " fill-opacity="1" fill-rule="nonzero"/><path fill="#e68585" d="M 304.929688 117.878906 C 305.082031 117.980469 305.246094 118.011719 305.421875 117.980469 C 305.597656 117.945312 305.738281 117.855469 305.84375 117.707031 L 315.511719 103.597656 C 315.589844 103.449219 315.609375 103.296875 315.570312 103.132812 C 315.53125 102.96875 315.445312 102.84375 315.304688 102.746094 C 315.167969 102.652344 315.015625 102.617188 314.851562 102.636719 C 314.683594 102.65625 314.546875 102.730469 314.4375 102.855469 L 304.761719 116.96875 C 304.65625 117.117188 304.621094 117.28125 304.65625 117.460938 C 304.6875 117.636719 304.78125 117.777344 304.929688 117.878906 Z M 304.929688 117.878906 " fill-opacity="1" fill-rule="nonzero"/><path fill="#e68585" d="M 229.859375 228.257812 C 229.820312 228.085938 229.730469 227.949219 229.585938 227.851562 C 229.4375 227.753906 229.273438 227.71875 229.097656 227.75 C 228.917969 227.785156 228.777344 227.875 228.675781 228.023438 L 219.015625 242.121094 C 218.914062 242.
273438 218.878906 242.433594 218.914062 242.613281 C 218.949219 242.789062 219.039062 242.925781 219.1875 243.027344 C 219.300781 243.105469 219.421875 243.144531 219.558594 243.144531 C 219.789062 243.144531 219.964844 243.046875 220.097656 242.859375 L 229.757812 228.761719 C 229.863281 228.609375 229.894531 228.441406 229.859375 228.257812 Z M 229.859375 228.257812 " fill-opacity="1" fill-rule="nonzero"/><g fill="#e68585" fill-opacity="1"><g transform="translate(212.753935, 187.873714)"><g><path d="M 3.742188 0 L 11.222656 0 L 11.222656 -0.699219 C 8.878906 -1.203125 7.417969 -2.601562 7.417969 -9.195312 L 7.417969 -39.316406 L 24.035156 -12.050781 L 24.921875 -12.050781 L 41.917969 -39.699219 L 41.917969 -8.054688 C 41.917969 -2.21875 41.15625 -1.140625 39.382812 -0.699219 L 39.382812 0 L 48.003906 0 L 48.003906 -0.699219 C 46.230469 -1.140625 45.46875 -2.21875 45.46875 -8.054688 L 45.46875 -35.195312 C 45.46875 -41.789062 46.800781 -43.1875 48.894531 -43.695312 L 48.894531 -44.390625 L 43.695312 -44.390625 L 41.980469 -41.601562 L 41.917969 -41.472656 L 26.0625 -15.664062 L 8.496094 -44.390625 L 2.855469 -44.390625 L 2.855469 -43.695312 C 4.945312 -43.1875 6.277344 -41.789062 6.277344 -35.195312 L 6.277344 -8.054688 C 6.277344 -2.21875 5.515625 -1.140625 3.742188 -0.699219 Z M 3.742188 0 "/></g></g></g><g fill="#e68585" fill-opacity="1"><g transform="translate(275.905621, 187.873714)"><g><path d="M 3.488281 0 L 33.863281 0 L 34.433594 -7.546875 L 33.863281 -7.671875 C 31.769531 -2.347656 28.410156 -0.824219 22.703125 -0.824219 L 12.113281 -0.824219 C 10.464844 -0.824219 9.574219 -1.710938 9.574219 -3.359375 L 9.574219 -23.210938 L 19.976562 -23.210938 C 26.570312 -23.210938 27.964844 -21.75 28.472656 -19.40625 L 29.171875 -19.40625 L 29.171875 -27.839844 L 28.472656 -27.839844 C 27.964844 -25.492188 26.570312 -24.035156 19.976562 -24.035156 L 9.574219 -24.035156 L 9.574219 -43.566406 L 20.992188 -43.566406 C 26.699219 -43.566406 30.1875 -41.664062 32.152344 -36.71875 L 32.722656 -36.84375 L 31.960938 -44.390625 L 3.488281 -44.390625 L 3.488281 -43.695312 C 5.261719 -43.25 6.023438 -42.171875 6.023438 -36.335938 L 6.023438 -8.054688 C 6.023438 -2.21875 5.261719 -1.140625 3.488281 -0.699219 Z M 3.488281 0 "/></g></g></g><g fill="#e68585" fill-opacity="1"><g transform="translate(23.833209, 186.673574)"><g><path d="M 43.125 -13.210938 C 42.871094 -13.46875 42.5625 -13.671875 42.203125 -13.671875 C 41.839844 -13.722656 41.480469 -13.621094 41.222656 -13.414062 C 41.019531 -13.261719 21.230469 2.46875 4.730469 -4.316406 C 1.386719 -5.707031 1.234375 -7.503906 1.335938 -8.480469 C 1.335938 -8.636719 1.386719 -8.789062 1.542969 -8.894531 C 1.644531 -8.996094 1.851562 -8.996094 2.003906 -8.945312 C 5.347656 -8.738281 8.6875 -9.613281 11.566406 -11.410156 C 14.03125 -13.003906 14.445312 -14.753906 14.289062 -15.882812 C 14.1875 -17.734375 12.695312 -19.222656 10.792969 -19.277344 C 6.734375 -19.480469 -0.0507812 -14.648438 -1.183594 -9.507812 C -1.644531 -7.609375 -1.59375 -4.007812 3.699219 -1.851562 C 6.9375 -0.515625 10.332031 0.101562 13.777344 0.101562 C 28.527344 0.101562 42.203125 -10.742188 42.921875 -11.308594 C 43.179688 -11.515625 43.382812 -11.875 43.382812 -12.183594 C 43.433594 -12.542969 43.332031 -12.902344 43.125 -13.210938 Z M 3.1875 -12.078125 C 5.191406 -14.855469 8.53125 -16.707031 10.640625 -16.550781 C 11.207031 -16.550781 11.515625 -16.347656 11.617188 -15.574219 C 11.667969 -15.0625 11.101562 -14.339844 10.074219 -13.671875 C 7.96875 -12.285156 1.644531 -10.023438 3.1875 -12.078125 Z M 3.1875 -12.078125 "/></g></g></g><g fill="#e68585" fill-opacity="1"><g transform="translate(65.00457, 186.673574)"><g><path d="M 42.355469 -13.414062 C 42.148438 -13.671875 41.789062 -13.828125 41.429688 -13.828125 C 41.070312 -13.828125 40.710938 -13.722656 40.453125 -13.46875 C 33.359375 -6.734375 21.691406 -5.292969 13.3125 -4.78125 C 13.054688 -4.730469 12.902344 -5.140625 13.054688 -5.398438 C 13.722656 -6.269531 14.1875 -7.300781 14.394531 -8.378906 C 14.804688 -11.152344 13.160156 -13.828125 10.433594 -14.597656 C 8.019531 -15.574219 5.398438 -14.085938 2.519531 -10.28125 C 2.3125 -10.023438 2.054688 -10.125 2.109375 -10.433594 C 2.3125 -11.976562 2.519531 -13.46875 2.722656 -14.855469 C 2.828125 -15.371094 2.621094 -15.832031 2.261719 -16.140625 C 1.851562 -16.5 1.335938 -16.550781 0.875 -16.347656 C 0.410156 -16.191406 0.101562 -15.730469 0.0507812 -15.265625 C -0.515625 -11.152344 -1.183594 -6.886719 -1.902344 -2.777344 C -6.578125 6.632812 -11.667969 21.125 -9.253906 23.386719 C -8.894531 23.746094 -8.378906 23.953125 -7.863281 23.953125 C -7.609375 23.953125 -7.402344 23.953125 -7.144531 23.851562 C -4.214844 22.824219 -1.386719 10.125 0.71875 -2.054688 C 0.769531 -2.160156 0.769531 -2.210938 0.824219 -2.261719 C 2.261719 -5.449219 4.265625 -8.378906 6.683594 -10.898438 C 7.453125 -11.617188 8.585938 -12.4375 9.457031 -12.078125 C 11.207031 -11.359375 11.976562 -10.28125 11.71875 -8.839844 C 11.050781 -6.476562 8.996094 -4.675781 6.527344 -4.316406 C 6.21875 -4.316406 5.910156 -4.265625 5.601562 -4.265625 C 4.882812 -4.164062 4.371094 -3.546875 4.371094 -2.828125 C 4.472656 -2.109375 5.039062 -1.59375 5.757812 -1.59375 C 6.117188 -1.59375 6.476562 -1.59375 6.835938 -1.644531 C 7.8125 -1.746094 8.945312 -1.800781 10.230469 -1.851562 C 18.917969 -2.363281 33.515625 -3.136719 42.304688 -11.515625 C 42.613281 -11.71875 42.714844 -12.078125 42.765625 -12.4375 C 42.765625 -12.800781 42.613281 -13.160156 42.355469 -13.414062 Z M -7.144531 19.585938 C -6.476562 16.5 -5.652344 13.46875 -4.574219 10.539062 C -5.191406 13.621094 -6.066406 16.601562 -7.144531 19.585938 Z M -7.144531 19.585938 "/></g></g></g><g fill="#e68585" fill-opacity="1"><g transform="translate(105.507734, 186.673574)"><g><path d="M 33.308594 -13.878906 C 32.742188 -14.394531 31.921875 -14.394531 31.40625 -13.828125 C 31.199219 -13.671875 14.546875 3.289062 3.496094 -4.78125 C 0.101562 -7.246094 3.390625 -13.671875 3.445312 -13.722656 C 3.753906 -14.394531 3.496094 -15.164062 2.828125 -15.523438 C 2.160156 -15.832031 1.386719 -15.625 1.027344 -14.957031 C 0.824219 -14.648438 -3.339844 -6.476562 1.902344 -2.621094 C 4.316406 -0.824219 7.300781 0.152344 10.332031 0.101562 C 21.433594 0.101562 32.691406 -11.359375 33.308594 -11.976562 C 33.566406 -12.234375 33.71875 -12.542969 33.71875 -12.902344 C 33.667969 -13.261719 33.566406 -13.621094 33.308594 -13.878906 Z M 0.460938 -17.9375 C 0.667969 -17.9375 0.875 -17.992188 1.078125 -18.09375 C 2.3125 -18.710938 3.390625 -19.53125 4.371094 -20.507812 C 4.882812 -21.074219 4.832031 -21.898438 4.316406 -22.410156 C 3.753906 -22.925781 2.929688 -22.925781 2.414062 -22.359375 C 1.644531 -21.589844 0.769531 -20.972656 -0.207031 -20.457031 C -0.71875 -20.199219 -1.027344 -19.53125 -0.875 -18.96875 C -0.71875 -18.351562 -0.152344 -17.9375 0.460938 -17.9375 Z M 0.460938 -17.9375 "/></g></g></g><g fill="#e68585" fill-opacity="1"><g transform="translate(137.067307, 186.673574)"><g><path d="M 35.261719 -13.980469 C 34.746094 -14.496094 33.875 -14.496094 33.359375 -13.929688 C 33.257812 -13.828125 19.328125 0.207031 10.074219 -3.289062 C 5.960938 -4.882812 4.214844 -9.664062 3.546875 -14.394531 C 4.472656 -16.65625 6.015625 -20.40625 7.453125 -24.621094 C 7.609375 -25.136719 7.761719 -25.1875 8.378906 -25.238281 C 15.316406 -25.753906 22.207031 -26.007812 26.265625 -26.007812 C 27.039062 -26.007812 27.601562 -26.625 27.601562 -27.347656 C 27.601562 -28.117188 27.039062 -28.683594 26.265625 -28.683594 C 22.359375 -28.683594 15.933594 -28.375 9.355469 -28.015625 C 9.097656 -27.960938 8.636719 -28.117188 8.996094 -29.042969 C 11.460938 -36.085938 13.210938 -43.230469 12.132812 -45.386719 C 11.050781 -47.546875 9.613281 -47.597656 8.894531 -47.445312 C 5.089844 -46.726562 2.3125 -36.855469 1.078125 -28.785156 C 0.976562 -28.066406 0.617188 -27.449219 -0.0507812 -27.398438 C -8.121094 -26.78125 -14.753906 -26.316406 -14.855469 -26.316406 C -15.625 -26.265625 -16.191406 -25.648438 -16.140625 -24.878906 C -16.140625 -24.160156 -15.523438 -23.542969 -14.753906 -23.59375 L -14.648438 -23.59375 C -14.496094 -23.59375 -8.277344 -24.054688 -0.515625 -24.621094 C -0.257812 -24.671875 0 -24.621094 0.207031 -24.417969 C 0.410156 -24.261719 0.566406 -24.003906 0.566406 -23.746094 C -0.207031 -11.515625 2.878906 -3.136719 9.097656 -0.769531 C 10.433594 -0.308594 11.824219 -0.0507812 13.261719 -0.0507812 C 23.4375 -0.0507812 34.746094 -11.515625 35.3125 -12.027344 C 35.570312 -12.285156 35.671875 -12.644531 35.671875 -13.003906 C 35.671875 -13.363281 35.519531 -13.722656 35.261719 -13.980469 Z M 3.804688 -28.886719 C 4.984375 -36.703125 7.351562 -42.871094 8.738281 -44.464844 C 8.894531 -44.566406 9.097656 -44.617188 9.304688 -44.566406 C 9.457031 -44.515625 9.613281 -44.410156 9.714844 -44.207031 C 10.332031 -42.871094 8.585938 -36.339844 5.960938 -28.578125 C 5.859375 -28.117188 5.5 -27.757812 4.984375 -27.707031 C 4.730469 -27.65625 4.472656 -27.65625 4.164062 -27.65625 C 3.648438 -27.65625 3.753906 -28.476562 3.804688 -28.835938 Z M 3.1875 -20.816406 C 2.671875 -20.816406 2.878906 -24.417969 3.339844 -24.929688 C 3.753906 -25.1875 4.265625 -25.238281 4.675781 -24.980469 C 5.140625 -24.570312 3.753906 -20.816406 3.1875 -20.816406 Z M 3.1875 -20.816406 "/></g></g></g><g fill="#e68585" fill-opacity="1"><g transform="translate(169.911868, 186.673574)"><g><path d="M 37.472656 -14.597656 C 37.214844 -14.855469 36.90625 -14.957031 36.546875 -14.957031 C 36.1875 -14.957031 35.828125 -14.855469 35.570312 -14.597656 C 29.402344 -8.429688 20.664062 -5.601562 12.078125 -7.042969 C 11.410156 -7.195312 10.949219 -7.8125 11.050781 -8.480469 C 11.460938 -10.949219 11.257812 -13.46875 9.816406 -14.289062 C 8.894531 -14.804688 7.503906 -14.855469 5.859375 -12.078125 C 5.242188 -11.152344 5.039062 -10.023438 5.242188 -8.945312 C 5.5 -7.863281 6.167969 -6.886719 7.09375 -6.324219 C 7.660156 -5.859375 6.992188 -5.089844 6.632812 -4.730469 C 5.652344 -3.546875 3.957031 -3.339844 2.777344 -4.265625 C 1.285156 -4.933594 0.617188 -6.578125 1.183594 -8.070312 C 1.851562 -10.792969 4.523438 -13.160156 5.5 -13.160156 C 6.21875 -13.160156 6.835938 -13.777344 6.835938 -14.496094 C 6.886719 -15.214844 6.269531 -15.832031 5.550781 -15.882812 L 5.5 -15.882812 C 2.929688 -15.882812 -0.515625 -12.386719 -1.4375 -8.738281 C -2.3125 -6.066406 -1.078125 -3.136719 1.492188 -1.902344 C 2.46875 -1.335938 3.546875 -1.078125 4.675781 -1.027344 C 6.886719 -1.128906 8.839844 -2.46875 9.765625 -4.523438 C 9.871094 -4.675781 10.125 -4.78125 10.332031 -4.730469 C 16.859375 -2.777344 28.785156 -4.007812 37.472656 -12.644531 C 37.730469 -12.902344 37.882812 -13.261719 37.882812 -13.621094 C 37.882812 -13.980469 37.730469 -14.339844 37.472656 -14.597656 Z M 8.378906 -8.738281 C 7.8125 -9.253906 7.710938 -10.074219 8.171875 -10.691406 C 8.328125 -10.949219 8.429688 -11.101562 8.53125 -11.257812 C 8.585938 -10.433594 8.53125 -9.5625 8.378906 -8.738281 Z M 8.378906 -8.738281 "/></g></g></g></svg>