 <svg  version="1.0" xmlns="http://www.w3.org/2000/svg"  width="300.000000pt" height="300.000000pt" viewBox="0 0 300.000000 300.000000"  preserveAspectRatio="xMidYMid meet">  <g transform="translate(0.000000,300.000000) scale(0.100000,-0.100000)" fill="#ffa3a3" stroke="none"> <path d="M2100 1921 c0 -54 4 -91 10 -91 6 0 10 35 10 84 0 47 -4 88 -10 91 -6 4 -10 -27 -10 -84z"/> <path d="M1926 1933 c9 -21 23 -57 31 -80 13 -37 33 -66 33 -48 0 18 -63 165 -71 165 -5 0 -2 -17 7 -37z"/> <path d="M2286 1939 c-8 -19 -24 -56 -35 -83 -12 -27 -19 -51 -16 -54 7 -7 7 -7 45 81 18 42 30 80 27 84 -4 3 -13 -9 -21 -28z"/> <path d="M2026 1888 c12 -56 25 -78 19 -33 -2 22 -5 46 -5 53 0 6 -5 12 -11 12 -7 0 -8 -12 -3 -32z"/> <path d="M2176 1898 c-7 -28 -8 -83 -1 -76 9 9 23 98 15 98 -4 0 -10 -10 -14 -22z"/> <path d="M1750 1854 c0 -13 118 -129 124 -123 3 3 -24 34 -59 69 -36 36 -65 60 -65 54z"/> <path d="M1870 1850 c0 -14 43 -80 53 -80 12 0 9 8 -19 50 -28 41 -34 47 -34 30z"/> <path d="M2317 1821 c-29 -43 -32 -51 -19 -51 11 0 54 70 50 82 -2 6 -16 -8 -31 -31z"/> <path d="M2395 1800 c-32 -33 -57 -62 -54 -64 3 -3 34 24 69 59 36 36 60 65 54 65 -5 0 -36 -27 -69 -60z"/> <path d="M2422 1720 c-12 -10 -28 -20 -35 -23 -6 -2 -9 -7 -5 -11 7 -8 78 34 78 47 0 12 -14 7 -38 -13z"/> <path d="M2487 1661 c-73 -30 -99 -48 -53 -37 39 9 155 64 136 65 -8 0 -45 -13 -83 -28z"/> <path d="M1487 1649 c-8 -13 -17 -36 -21 -51 -5 -23 -13 -28 -51 -34 -55 -8 -50 -25 5 -18 37 4 40 3 40 -19 0 -29 -23 -51 -73 -72 -49 -20 -80 -7 -71 30 7 28 -7 33 -26 11 -11 -14 -45 -28 -101 -40 -22 -5 -25 -2 -25 17 1 18 -4 22 -26 22 -16 -1 -28 3 -28 7 0 4 -16 -4 -36 -17 -62 -42 -151 -55 -170 -24 -5 8 10 13 20 7 10 -7 44 35 39 48 -8 21 -31 17 -58 -11 -33 -32 -31 -53 6 -69 39 -16 93 -11 142 14 20 11 37 19 37 17 0 -1 -11 -33 -24 -71 -25 -72 -25 -110 0 -84 8 7 18 37 24 66 11 57 35 112 50 112 16 0 11 -30 -5 -36 -8 -4 -15 -10 -15 -14 0 -12 110 0 139 15 20 10 26 9 46 -10 28 -29 75 -25 121 10 38 29 44 30 44 10 0 -8 11 -22 24 -31 23 -14 28 -14 69 4 41 18 46 19 61 4 14 -14 20 -14 37 -4 11 7 24 10 29 7 24 -15 137 36 124 56 -3 5 -17 1 -32 -10 -15 -10 -44 -20 -64 -23 -31 -3 -38 -1 -38 13 0 29 -31 31 -69 5 -20 -14 -48 -29 -62 -35 -51 -19 -90 38 -56 82 7 10 30 17 57 19 26 2 43 7 40 13 -3 6 -24 9 -46 7 l-42 -4 11 41 c14 52 -3 77 -26 40z"/> <path d="M1855 1525 c0 -102 2 -115 17 -115 13 0 16 6 13 28 -8 54 -15 162 -11 162 3 0 22 -30 43 -66 43 -74 38 -75 98 22 l30 49 3 -69 c2 -38 -2 -82 -7 -97 -9 -27 -8 -29 15 -29 15 0 23 4 19 10 -4 6 -7 53 -7 105 0 52 3 99 7 105 3 5 -1 10 -9 10 -8 0 -34 -32 -57 -71 l-42 -70 -44 70 c-25 39 -50 71 -56 71 -9 0 -12 -34 -12 -115z"/> <path d="M2175 1525 l0 -115 73 0 c56 0 74 3 79 15 8 22 -4 30 -22 15 -8 -7 -35 -13 -60 -14 l-45 -2 0 53 0 53 38 0 c21 0 43 -5 50 -12 9 -9 12 -6 12 17 0 23 -3 26 -12 17 -7 -7 -29 -12 -50 -12 l-38 0 0 45 0 45 39 0 c23 0 46 -7 56 -16 18 -19 30 -13 22 11 -5 11 -22 15 -74 15 l-68 0 0 -115z"/> <path d="M2445 1570 c-16 -7 -13 -9 15 -9 19 0 44 4 55 9 16 7 13 9 -15 9 -19 0 -44 -4 -55 -9z"/> <path d="M2440 1500 c0 -6 35 -10 85 -10 50 0 85 4 85 10 0 6 -35 10 -85 10 -50 0 -85 -4 -85 -10z"/> <path d="M2435 1433 c15 -15 85 -26 85 -13 0 5 -6 10 -14 10 -7 0 -29 3 -47 6 -23 5 -31 3 -24 -3z"/> <path d="M2413 1363 c15 -14 157 -71 161 -64 3 4 -30 22 -72 39 -75 31 -102 39 -89 25z"/> <path d="M2380 1312 c0 -13 59 -54 72 -50 6 2 -8 16 -31 31 -22 15 -41 24 -41 19z"/> <path d="M1805 1210 c-32 -33 -56 -62 -54 -65 5 -4 129 113 129 122 0 13 -24 -5 -75 -57z"/> <path d="M2340 1264 c0 -13 118 -129 124 -123 3 3 -24 34 -59 69 -36 36 -65 60 -65 54z"/> <path d="M1886 1190 c-15 -23 -26 -44 -23 -46 7 -7 59 66 55 77 -2 6 -16 -8 -32 -31z"/> <path d="M2290 1220 c0 -14 43 -80 53 -80 12 0 9 8 -19 50 -28 41 -34 47 -34 30z"/> <path d="M1962 1180 c-5 -14 -22 -51 -36 -84 -29 -66 -29 -66 -17 -66 11 0 73 149 68 163 -3 7 -9 1 -15 -13z"/> <path d="M2254 1111 c30 -77 46 -105 46 -85 0 20 -58 158 -67 161 -6 2 4 -32 21 -76z"/> <path d="M2026 1139 c-9 -45 -8 -65 3 -53 12 13 22 84 12 84 -5 0 -11 -14 -15 -31z"/> <path d="M2100 1081 c0 -54 4 -91 10 -91 6 0 10 35 10 84 0 47 -4 88 -10 91 -6 4 -10 -27 -10 -84z"/> <path d="M2167 1133 c6 -39 23 -70 23 -41 0 30 -13 78 -21 78 -4 0 -5 -17 -2 -37z"/> </g> </svg> 